<svg width="18" height="24" viewBox="0 0 18 24" fill="none" xmlns="http://www.w3.org/2000/svg">
<path d="M12.852 8.981H8.264V0H12.852C15.328 0 17.342 2.014 17.342 4.49C17.342 6.966 15.328 8.981 12.852 8.981V8.981ZM9.735 7.51H12.852C14.517 7.51 15.871 6.155 15.871 4.491C15.871 2.827 14.516 1.472 12.852 1.472H9.735V7.51V7.51ZM9.735 8.981H5.148C2.672 8.981 0.657998 6.967 0.657998 4.491C0.657998 2.015 2.672 0 5.148 0H9.736V8.981H9.735ZM5.148 1.471C3.483 1.471 2.129 2.826 2.129 4.49C2.129 6.154 3.483 7.51 5.148 7.51H8.265V1.471H5.148ZM9.735 16.49H5.148C2.672 16.49 0.657998 14.476 0.657998 12C0.657998 9.524 2.672 7.51 5.148 7.51H9.736V16.49H9.735ZM5.148 8.981C3.483 8.981 2.129 10.336 2.129 12C2.129 13.664 3.484 15.019 5.148 15.019H8.265V8.981H5.148ZM5.172 24C2.683 24 0.656998 21.986 0.656998 19.51C0.656998 17.034 2.671 15.02 5.147 15.02H9.735V19.461C9.735 21.964 7.688 24 5.172 24V24ZM5.148 16.49C4.34763 16.4911 3.58035 16.8095 3.01441 17.3754C2.44847 17.9414 2.13006 18.7086 2.129 19.509C2.129 21.174 3.494 22.528 5.173 22.528C6.878 22.528 8.266 21.152 8.266 19.46V16.49H5.148V16.49ZM12.852 16.49H12.754C10.278 16.49 8.264 14.476 8.264 12C8.264 9.524 10.278 7.51 12.754 7.51H12.852C15.328 7.51 17.342 9.524 17.342 12C17.342 14.476 15.328 16.49 12.852 16.49V16.49ZM12.755 8.981C11.09 8.981 9.736 10.336 9.736 12C9.736 13.664 11.091 15.019 12.755 15.019H12.853C14.518 15.019 15.872 13.664 15.872 12C15.872 10.336 14.517 8.981 12.853 8.981H12.755V8.981Z" fill="#F24E1E"/>
</svg>
