<svg role="img" viewBox="0 0 341.5696172229003 44.14507135411203" class="css-1j8o68f">
  <title>Logo gersonrsantos</title>
  <g id="SvgjsG5602" featurekey="symbolFeature-0" transform="matrix(0.8829014270822405,0,0,0.8829014270822405,-8.829014270822405,-8.829014270822405)" fill="#ffcd38">
    <g xmlns="http://www.w3.org/2000/svg">
      <g>
        <path d="M56.5834961,33.2109375H28.8271484c-0.5522461,0-1-0.4477539-1-1V12.5273438    C27.8271484,11.1337891,28.9609375,10,30.3544922,10h24.7016602c1.3935547,0,2.5273438,1.1337891,2.5273438,2.5273438v19.6835938    C57.5834961,32.7631836,57.1357422,33.2109375,56.5834961,33.2109375z M29.8271484,31.2109375h25.7563477V12.5273438    C55.5834961,12.2363281,55.347168,12,55.0561523,12H30.3544922c-0.2910156,0-0.5273438,0.2363281-0.5273438,0.5273438V31.2109375z    "></path>
      </g>
      <g>
        <path d="M55.2412109,37.0493164h-25.0625c-2.6240234,0-4.7587891-1.7099609-4.7587891-3.8115234v-1.0268555    c0-0.5522461,0.4477539-1,1-1H59c0.5522461,0,1,0.4477539,1,1v1.0268555    C60,35.3393555,57.8652344,37.0493164,55.2412109,37.0493164z M27.4199219,33.2109375v0.0268555    c0,0.9819336,1.2631836,1.8115234,2.7587891,1.8115234h25.0625C56.7368164,35.0493164,58,34.2197266,58,33.237793v-0.0268555    H27.4199219z"></path>
      </g>
      <g>
        <path d="M56.5834961,33.2109375H28.8271484c-0.5522461,0-1-0.4477539-1-1V12.5273438    C27.8271484,11.1337891,28.9609375,10,30.3544922,10h24.7016602c1.3935547,0,2.5273438,1.1337891,2.5273438,2.5273438v19.6835938    C57.5834961,32.7631836,57.1357422,33.2109375,56.5834961,33.2109375z M29.8271484,31.2109375h25.7563477V12.5273438    C55.5834961,12.2363281,55.347168,12,55.0561523,12H30.3544922c-0.2910156,0-0.5273438,0.2363281-0.5273438,0.5273438V31.2109375z    "></path>
      </g>
      <g>
        <path d="M55.2412109,37.0493164h-25.0625c-2.6240234,0-4.7587891-1.7099609-4.7587891-3.8115234v-1.0268555    c0-0.5522461,0.4477539-1,1-1H59c0.5522461,0,1,0.4477539,1,1v1.0268555    C60,35.3393555,57.8652344,37.0493164,55.2412109,37.0493164z M27.4199219,33.2109375v0.0268555    c0,0.9819336,1.2631836,1.8115234,2.7587891,1.8115234h25.0625C56.7368164,35.0493164,58,34.2197266,58,33.237793v-0.0268555    H27.4199219z"></path>
      </g>
      <g>
        <path d="M51.5522461,60H18.4355469C13.7841797,60,10,55.7910156,10,50.6171875c0-5,3.534668-9.0991211,7.9702148-9.3686523    c0.9995117-5.8193359,5.4047852-10.3032227,10.762207-10.8120117c0.2856445-0.0249023,0.559082,0.0673828,0.7675781,0.2558594    c0.2084961,0.1894531,0.3271484,0.4580078,0.3271484,0.7397461v0.7788086c0,0.5522461-0.4477539,1-1,1l-1.4072266,0.0268555    c0,0.9819336,1.2631836,1.8115234,2.7587891,1.8115234h18.7758789c0.215332,0,0.425293,0.0698242,0.5981445,0.1987305    c2.0405273,1.5224609,3.5439453,3.7583008,4.2773438,6.3427734C57.4404297,42.6982422,60,46.3886719,60,50.6171875    C60,55.7910156,56.2104492,60,51.5522461,60z M18.4355469,43.234375C14.887207,43.234375,12,46.5463867,12,50.6171875    S14.887207,58,18.4355469,58h33.1166992C55.1074219,58,58,54.6879883,58,50.6171875    c0-3.5292969-2.1889648-6.5708008-5.2055664-7.2324219c-0.3759766-0.0825195-0.671875-0.3735352-0.7592773-0.7490234    c-0.5288086-2.2612305-1.7387695-4.2324219-3.4223633-5.5864258h-18.434082c-2.5083008,0-4.5698242-1.5625-4.746582-3.5361328    c-2.9936523,1.6459961-5.1767578,4.9433594-5.6000977,8.8554688c-0.0302734,0.2802734-0.1777344,0.534668-0.4052734,0.7006836    c-0.2280273,0.1665039-0.515625,0.2265625-0.7915039,0.1713867C18.6054688,43.234375,18.5073242,43.234375,18.4355469,43.234375z"></path>
      </g>
      <g>
        <g>
          <g>
            <path d="M48.65625,26.3085938c-0.2558594,0-0.5112305-0.0976563-0.706543-0.2924805      c-0.390625-0.3901367-0.3911133-1.0234375-0.0009766-1.4140625l2.8618164-2.8657227L47.9492188,18.875      c-0.390625-0.390625-0.390625-1.0234375,0-1.4140625s1.0234375-0.390625,1.4140625,0l3.5678711,3.5678711      c0.390625,0.3901367,0.390625,1.0229492,0.0004883,1.4135742l-3.5678711,3.5727539      C49.168457,26.2109375,48.9125977,26.3085938,48.65625,26.3085938z"></path>
          </g>
          <g>
            <path d="M36.7543945,26.3085938c-0.2563477,0-0.512207-0.0976563-0.7075195-0.293457l-3.5678711-3.5727539      c-0.3901367-0.390625-0.3901367-1.0234375,0.0004883-1.4135742l3.5678711-3.5678711      c0.390625-0.390625,1.0234375-0.390625,1.4140625,0s0.390625,1.0234375,0,1.4140625l-2.8613281,2.8613281l2.8618164,2.8657227      c0.3901367,0.390625,0.3901367,1.0239258-0.0009766,1.4140625      C37.265625,26.2109375,37.0102539,26.3085938,36.7543945,26.3085938z"></path>
          </g>
        </g>
        <g>
          <path d="M39.2397461,29.3862305c-0.1557617,0-0.3134766-0.0361328-0.4614258-0.1132813     c-0.4897461-0.2553711-0.6796875-0.8588867-0.4243164-1.3491211l7.0678711-13.5620117     c0.2558594-0.4892578,0.859375-0.6801758,1.3491211-0.4243164c0.4897461,0.2553711,0.6796875,0.8588867,0.4243164,1.3491211     l-7.0678711,13.5620117C39.9492188,29.1904297,39.6005859,29.3862305,39.2397461,29.3862305z"></path>
        </g>
      </g>
    </g>
  </g>
  <g id="SvgjsG5603" featurekey="nameLeftFeature-0" transform="matrix(1.686728892498413,0,0,1.686728892498413,62.481944640187436,0.2844444103275823)" fill="#ffcd38">
    <path d="M14.38 12.559999999999999 c0.62 4.7 -2.44 7.64 -6.22 7.64 c-3.98 0 -7.26 -2.94 -7.26 -7.2 s3.36 -7.2 7.26 -7.2 c1.86 0 3.5 0.6 4.7 1.66 l-1.76 1.98 c-0.74 -0.52 -1.74 -0.9 -2.76 -0.9 c-2.54 0 -4.4 1.86 -4.4 4.46 s1.8 4.46 4.22 4.46 c1.84 0 3.12 -0.66 3.52 -2.42 l-3.3 0 l0 -2.48 l6 0 z M19.46 17.32 l5.92 0 l0 2.68 l-6.32 0 l-2.52 0 l0 -14 l2.92 0 l5.74 0 l0 2.68 l-5.74 0 l0 2.96 l4.34 0 l0 2.64 l-4.34 0 l0 3.04 z M38.5 20 l-3.1 0 l-2.98 -4.66 l-0.04 0 l-1.98 0 l0 4.66 l-2.92 0 l0 -14 l4.9 0 c3.14 0 5.18 1.9 5.18 4.76 c0 1.9 -0.92 3.32 -2.48 4.04 z M30.400000000000002 8.68 l0 4.14 l1.8 0 c1.44 0 2.44 -0.56 2.44 -2.06 c0 -1.48 -1 -2.08 -2.44 -2.08 l-1.8 0 z M44.480000000000004 5.76 c2.46 0 4.02 1.54 4.76 2.9 l-2.16 1.28 c-0.76 -1.06 -1.5 -1.6 -2.6 -1.6 c-0.98 0 -1.7 0.58 -1.7 1.38 s0.46 1.22 1.56 1.62 l0.96 0.34 c3.1 1.1 4.32 2.48 4.32 4.4 c0 2.82 -2.68 4.22 -5.06 4.22 c-2.52 0 -4.48 -1.5 -5.16 -3.46 l2.24 -1.18 c0.5 1.02 1.34 2 2.92 2 c1.14 0 2.02 -0.5 2.02 -1.54 c0 -1 -0.6 -1.44 -2.12 -2.02 l-0.86 -0.3 c-2.06 -0.74 -3.72 -1.76 -3.72 -4.2 c0 -2.24 2.1 -3.84 4.6 -3.84 z M58.480000000000004 5.800000000000001 c3.9 0 7.26 2.94 7.26 7.2 s-3.36 7.2 -7.26 7.2 s-7.26 -2.94 -7.26 -7.2 s3.36 -7.2 7.26 -7.2 z M58.480000000000004 17.46 c2.36 0 4.22 -1.86 4.22 -4.46 s-1.86 -4.46 -4.22 -4.46 s-4.22 1.86 -4.22 4.46 s1.86 4.46 4.22 4.46 z M77.00000000000001 6 l2.92 0 l0 14 l-2.22 0 l-6.94 -8.68 l0 8.68 l-2.92 0 l0 -14 l2.26 0 l6.9 8.7 l0 -8.7 z"></path>
  </g>
  <g id="SvgjsG5604" featurekey="nameRightFeature-0" transform="matrix(1.686728892498413,0,0,1.686728892498413,201.9759260528674,0.28444119314753635)" fill="#ffcd38">
    <path d="M10.86 20 l-0.72 0 l-4.08 -5.38 c-0.2 0.02 -0.4 0.02 -0.6 0.02 l-3.68 0 l0 5.36 l-0.58 0 l0 -14 l4.26 0 c3.14 0 4.8 1.94 4.8 4.3 c0 2.08 -1.22 3.8 -3.56 4.24 z M1.78 14.04 l3.76 0 c2.52 0 4.14 -1.46 4.14 -3.74 c0 -2.32 -1.62 -3.72 -4.14 -3.72 l-3.76 0 l0 7.46 z M16.3 5.76 c1.96 0 3.58 1.34 4.08 2.98 l-0.48 0.18 c-0.56 -1.48 -1.82 -2.6 -3.6 -2.6 c-2 0 -3.36 1.16 -3.36 2.74 c0 1.42 0.96 2.4 2.84 3.14 l1.06 0.4 c2.02 0.82 3.9 1.64 3.9 4.12 c0 2.04 -1.98 3.58 -4.34 3.58 c-2.24 0 -4.2 -1.38 -4.64 -3.42 l0.56 -0.18 c0.48 1.88 2.1 3.04 4.08 3.04 s3.76 -1.26 3.76 -3.04 c0 -2.1 -1.58 -2.84 -3.34 -3.52 l-1.2 -0.48 c-2.18 -0.86 -3.26 -2.02 -3.26 -3.62 c0 -1.86 1.54 -3.32 3.94 -3.32 z M33.84 20 l-1.78 -3.98 l-8.04 0 l-1.78 3.98 l-0.62 0 l6.26 -14 l0.3 0 l6.28 14 l-0.62 0 z M24.26 15.46 l7.56 0 l-3.78 -8.46 z M46.32 6 l0.58 0 l0 14 l-0.44 0 l-9.82 -12.9 l0 12.9 l-0.58 0 l0 -14 l0.44 0 l9.82 12.94 l0 -12.94 z M57.94 6 l0 0.58 l-4.22 0 l0 13.42 l-0.58 0 l0 -13.42 l-4.24 0 l0 -0.58 l9.04 0 z M65.7 5.800000000000001 c3.44 0 7.08 2.98 7.08 7.2 s-3.64 7.2 -7.08 7.2 s-7.06 -2.98 -7.06 -7.2 s3.62 -7.2 7.06 -7.2 z M65.7 19.6 c3.1 0 6.5 -2.68 6.5 -6.6 s-3.4 -6.6 -6.5 -6.6 c-3.08 0 -6.48 2.68 -6.48 6.6 s3.4 6.6 6.48 6.6 z M78.32000000000001 5.76 c1.96 0 3.58 1.34 4.08 2.98 l-0.48 0.18 c-0.56 -1.48 -1.82 -2.6 -3.6 -2.6 c-2 0 -3.36 1.16 -3.36 2.74 c0 1.42 0.96 2.4 2.84 3.14 l1.06 0.4 c2.02 0.82 3.9 1.64 3.9 4.12 c0 2.04 -1.98 3.58 -4.34 3.58 c-2.24 0 -4.2 -1.38 -4.64 -3.42 l0.56 -0.18 c0.48 1.88 2.1 3.04 4.08 3.04 s3.76 -1.26 3.76 -3.04 c0 -2.1 -1.58 -2.84 -3.34 -3.52 l-1.2 -0.48 c-2.18 -0.86 -3.26 -2.02 -3.26 -3.62 c0 -1.86 1.54 -3.32 3.94 -3.32 z"></path>
  </g>
</svg>